<svg xmlns="http://www.w3.org/2000/svg" xmlns:xlink="http://www.w3.org/1999/xlink" width="500" zoomAndPan="magnify" viewBox="0 0 375 374.999991" height="500" preserveAspectRatio="xMidYMid meet" version="1.0"><defs><clipPath id="cac81a4b7e"><path d="M 30 31 L 345 31 L 345 344 L 30 344 Z M 30 31 " clip-rule="nonzero"/></clipPath><clipPath id="1639255171"><path d="M 150.515625 463.4375 L -88.664062 224.257812 L 224.230469 -88.636719 L 463.410156 150.542969 Z M 150.515625 463.4375 " clip-rule="nonzero"/></clipPath><clipPath id="77c54d068a"><path d="M 150.515625 463.4375 L -88.664062 224.257812 L 224.230469 -88.636719 L 463.410156 150.542969 Z M 150.515625 463.4375 " clip-rule="nonzero"/></clipPath><clipPath id="4fea045d1c"><path d="M 5.164062 85.371094 L 82.894531 85.371094 L 82.894531 163.101562 L 5.164062 163.101562 Z M 5.164062 85.371094 " clip-rule="nonzero"/></clipPath><clipPath id="cf28ed6d4e"><path d="M 44.03125 163.101562 C 65.496094 163.101562 82.894531 145.699219 82.894531 124.234375 C 82.894531 102.769531 65.496094 85.371094 44.03125 85.371094 C 22.566406 85.371094 5.164062 102.769531 5.164062 124.234375 C 5.164062 145.699219 22.566406 163.101562 44.03125 163.101562 Z M 44.03125 163.101562 " clip-rule="nonzero"/></clipPath><clipPath id="8565425efd"><path d="M 291.308594 210.394531 L 369.039062 210.394531 L 369.039062 288.125 L 291.308594 288.125 Z M 291.308594 210.394531 " clip-rule="nonzero"/></clipPath><clipPath id="fb17ee05fe"><path d="M 330.175781 288.125 C 351.640625 288.125 369.039062 270.722656 369.039062 249.257812 C 369.039062 227.792969 351.640625 210.394531 330.175781 210.394531 C 308.710938 210.394531 291.308594 227.792969 291.308594 249.257812 C 291.308594 270.722656 308.710938 288.125 330.175781 288.125 Z M 330.175781 288.125 " clip-rule="nonzero"/></clipPath></defs><g clip-path="url(#cac81a4b7e)"><g clip-path="url(#1639255171)"><g clip-path="url(#77c54d068a)"><path fill="#ff751f" d="M 134.363281 249.449219 L 172.449219 249.449219 L 172.449219 31.441406 L 344.523438 31.601562 L 344.523438 217.007812 L 315.011719 217.007812 L 315.011719 61.113281 L 202.527344 61.113281 L 202.527344 96.03125 L 269.714844 96.03125 L 269.714844 96.480469 L 270.121094 96.480469 L 270.117188 343.542969 L 240.605469 343.542969 L 240.605469 125.535156 L 202.523438 125.535156 L 202.535156 343.542969 L 30.453125 343.375 L 30.453125 157.96875 L 59.964844 157.96875 L 59.960938 313.871094 L 172.441406 313.871094 L 172.441406 278.953125 L 105.257812 278.953125 L 105.257812 278.503906 L 104.847656 278.503906 L 104.847656 31.4375 L 134.359375 31.4375 Z M 134.363281 249.449219 " fill-opacity="1" fill-rule="nonzero"/></g></g></g><g clip-path="url(#4fea045d1c)"><g clip-path="url(#cf28ed6d4e)"><path stroke-linecap="butt" transform="matrix(-0.75, 0, 0, -0.75, 82.894825, 163.100483)" fill="none" stroke-linejoin="miter" d="M 51.818104 -0.00143948 C 23.19831 -0.00143948 0.000392275 23.201687 0.000392275 51.821481 C 0.000392275 80.441274 23.19831 103.639192 51.818104 103.639192 C 80.437898 103.639192 103.641024 80.441274 103.641024 51.821481 C 103.641024 23.201687 80.437898 -0.00143948 51.818104 -0.00143948 Z M 51.818104 -0.00143948 " stroke="#ff751f" stroke-width="66" stroke-opacity="1" stroke-miterlimit="4"/></g></g><g clip-path="url(#8565425efd)"><g clip-path="url(#fb17ee05fe)"><path stroke-linecap="butt" transform="matrix(-0.75, 0, 0, -0.75, 369.040907, 288.124083)" fill="none" stroke-linejoin="miter" d="M 51.820172 -0.00122309 C 23.200378 -0.00122309 0.00245996 23.201903 0.00245996 51.821697 C 0.00245996 80.441491 23.200378 103.639409 51.820172 103.639409 C 80.439965 103.639409 103.643092 80.441491 103.643092 51.821697 C 103.643092 23.201903 80.439965 -0.00122309 51.820172 -0.00122309 Z M 51.820172 -0.00122309 " stroke="#ff751f" stroke-width="66" stroke-opacity="1" stroke-miterlimit="4"/></g></g></svg>